<mxfile host="app.diagrams.net" modified="2023-04-21T15:26:54.176Z" agent="Mozilla/5.0 (Windows NT 10.0; Win64; x64) AppleWebKit/537.36 (KHTML, like Gecko) Chrome/112.0.0.0 Safari/537.36" version="21.2.1" etag="-qp_eH1bOaDKXltlMEi8" type="github">
  <diagram name="Page-1" id="tveMG6RjmAwpyQovrQPd">
    <mxGraphModel>
      <root>
        <mxCell id="0" />
        <mxCell id="1" parent="0" />
      </root>
    </mxGraphModel>
  </diagram>
</mxfile>
